<svg width="32" height="32" viewBox="0 0 32 32" fill="none" xmlns="http://www.w3.org/2000/svg">
<path opacity="0.8" d="M17.2 3.36L17.16 3.45333L13.2933 12.4267H9.49333C8.58667 12.4267 7.73333 12.6 6.93333 12.9467L9.26667 7.37333L9.32 7.25333L9.4 7.04C9.44 6.94667 9.46667 6.86667 9.50667 6.8C11.2533 2.76 13.2267 1.84 17.2 3.36Z" fill="white"/>
<path d="M24.3867 12.6933C23.7867 12.52 23.16 12.4267 22.5067 12.4267H13.2933L17.16 3.45333L17.2 3.36C17.3867 3.42667 17.5867 3.52 17.7867 3.58667L20.7333 4.82667C22.3733 5.50667 23.52 6.21333 24.2267 7.06667C24.3467 7.22667 24.4533 7.37333 24.56 7.54667C24.68 7.73333 24.7733 7.92 24.8267 8.12C24.88 8.24 24.92 8.34667 24.9467 8.46667C25.2933 9.6 25.08 10.9733 24.3867 12.6933Z" fill="white"/>
<path opacity="0.4" d="M29.0133 18.9333V21.5333C29.0133 21.8 29 22.0667 28.9867 22.32C28.7333 26.9867 26.1333 29.3333 21.2 29.3333H10.8C10.4667 29.3333 10.16 29.3067 9.85333 29.2667C5.61333 28.9867 3.34667 26.72 3.05333 22.48C3.01333 22.16 2.98667 21.8533 2.98667 21.5333V18.9333C2.98667 16.2533 4.61333 13.9467 6.93333 12.9467C7.73333 12.6 8.58667 12.4267 9.49333 12.4267H22.5067C23.16 12.4267 23.7867 12.52 24.3867 12.6933C27.0533 13.5067 29.0133 15.9867 29.0133 18.9333Z" fill="white"/>
<path opacity="0.6" d="M9.26667 7.37333L6.93333 12.9467C4.61333 13.9467 2.98667 16.2533 2.98667 18.9333V15.0267C2.98667 11.24 5.68 8.08 9.26667 7.37333Z" fill="white"/>
<path opacity="0.6" d="M29.0133 15.0267V18.9333C29.0133 15.9867 27.0533 13.5067 24.3867 12.6933C25.08 10.9733 25.2933 9.6 24.9467 8.46667C24.92 8.34667 24.88 8.24 24.8267 8.12C27.32 9.41333 29.0133 12.04 29.0133 15.0267Z" fill="white"/>
<path d="M19.3333 19.5867H17V17.3333C17 16.7867 16.5467 16.3333 16 16.3333C15.4533 16.3333 15 16.7867 15 17.3333V19.5867H12.6667C12.12 19.5867 11.6667 20.04 11.6667 20.5867C11.6667 21.1333 12.12 21.5867 12.6667 21.5867H15V24C15 24.5467 15.4533 25 16 25C16.5467 25 17 24.5467 17 24V21.5867H19.3333C19.88 21.5867 20.3333 21.1333 20.3333 20.5867C20.3333 20.04 19.88 19.5867 19.3333 19.5867Z" fill="white"/>
</svg>
