<svg width="32" height="32" viewBox="0 0 32 32" fill="none" xmlns="http://www.w3.org/2000/svg">
<path opacity="0.4" d="M24.0534 18.0667C23.4934 18.6133 23.1734 19.4 23.2534 20.24C23.3734 21.68 24.6934 22.7333 26.1334 22.7333H28.6667V24.32C28.6667 27.08 26.4134 29.3333 23.6534 29.3333H8.34671C5.58671 29.3333 3.33337 27.08 3.33337 24.32V15.3467C3.33337 12.5867 5.58671 10.3333 8.34671 10.3333H23.6534C26.4134 10.3333 28.6667 12.5867 28.6667 15.3467V17.2667H25.9734C25.2267 17.2667 24.5467 17.56 24.0534 18.0667Z" fill="white"/>
<path d="M19.8 5.26667V10.3333H8.34671C5.58671 10.3333 3.33337 12.5867 3.33337 15.3467V10.4534C3.33337 8.86669 4.30671 7.4533 5.78671 6.8933L16.3734 2.8933C18.0267 2.27997 19.8 3.49334 19.8 5.26667Z" fill="white"/>
<path d="M30.08 18.6266V21.3734C30.08 22.1067 29.4934 22.7067 28.7467 22.7333H26.1334C24.6934 22.7333 23.3734 21.68 23.2534 20.24C23.1734 19.4 23.4934 18.6133 24.0534 18.0667C24.5467 17.56 25.2267 17.2667 25.9734 17.2667H28.7467C29.4934 17.2934 30.08 17.8933 30.08 18.6266Z" fill="white"/>
<path d="M18.6667 17H9.33337C8.78671 17 8.33337 16.5467 8.33337 16C8.33337 15.4533 8.78671 15 9.33337 15H18.6667C19.2134 15 19.6667 15.4533 19.6667 16C19.6667 16.5467 19.2134 17 18.6667 17Z" fill="white"/>
</svg>
